<svg width="18" height="18" viewBox="0 0 18 18" fill="none" xmlns="http://www.w3.org/2000/svg">
<path d="M10.7464 9L15.6346 4.11179C15.8666 3.88021 15.9971 3.56595 15.9974 3.23815C15.9977 2.91035 15.8677 2.59586 15.6361 2.36387C15.4045 2.13188 15.0903 2.00138 14.7625 2.00109C14.4347 2.0008 14.1202 2.13074 13.8882 2.36233L9 7.25054L4.11179 2.36233C3.8798 2.13033 3.56515 2 3.23706 2C2.90897 2 2.59432 2.13033 2.36233 2.36233C2.13033 2.59432 2 2.90897 2 3.23706C2 3.56515 2.13033 3.8798 2.36233 4.11179L7.25054 9L2.36233 13.8882C2.13033 14.1202 2 14.4349 2 14.7629C2 15.091 2.13033 15.4057 2.36233 15.6377C2.59432 15.8697 2.90897 16 3.23706 16C3.56515 16 3.8798 15.8697 4.11179 15.6377L9 10.7495L13.8882 15.6377C14.1202 15.8697 14.4349 16 14.7629 16C15.091 16 15.4057 15.8697 15.6377 15.6377C15.8697 15.4057 16 15.091 16 14.7629C16 14.4349 15.8697 14.1202 15.6377 13.8882L10.7464 9Z" fill="#D7263D"/>
</svg>
