<svg width="18" height="18" viewBox="0 0 18 18" fill="none" xmlns="http://www.w3.org/2000/svg">
<path d="M15.7499 3.46155H11.423V2.07694C11.423 1.3154 10.7999 0.692322 10.0384 0.692322H7.96148C7.19994 0.692322 6.57687 1.3154 6.57687 2.07694V3.46155H2.24994C1.97302 3.46155 1.73071 3.70386 1.73071 3.98078V5.01924C1.73071 5.29617 1.97302 5.53848 2.24994 5.53848H15.7499C16.0269 5.53848 16.2692 5.29617 16.2692 5.01924V3.98078C16.2692 3.70386 16.0269 3.46155 15.7499 3.46155ZM7.96148 2.42309C7.96148 2.2154 8.09994 2.07694 8.30764 2.07694H9.69225C9.89994 2.07694 10.0384 2.2154 10.0384 2.42309V3.46155H7.96148V2.42309Z" fill="#D7263D"/>
<path d="M14.3654 6.9231H3.63459C3.35766 6.9231 3.11536 7.1654 3.11536 7.44233V15.5769C3.11536 16.5462 3.87689 17.3077 4.84613 17.3077H13.1538C14.123 17.3077 14.8846 16.5462 14.8846 15.5769V7.44233C14.8846 7.1654 14.6423 6.9231 14.3654 6.9231ZM7.96151 14.5385C7.96151 14.7462 7.82305 14.8846 7.61536 14.8846H6.92305C6.71536 14.8846 6.57689 14.7462 6.57689 14.5385V9.69233C6.57689 9.48463 6.71536 9.34617 6.92305 9.34617H7.61536C7.82305 9.34617 7.96151 9.48463 7.96151 9.69233V14.5385ZM11.423 14.5385C11.423 14.7462 11.2846 14.8846 11.0769 14.8846H10.3846C10.1769 14.8846 10.0384 14.7462 10.0384 14.5385V9.69233C10.0384 9.48463 10.1769 9.34617 10.3846 9.34617H11.0769C11.2846 9.34617 11.423 9.48463 11.423 9.69233V14.5385Z" fill="#D7263D"/>
</svg>
