<svg width="40" height="40" viewBox="0 0 40 40" fill="none" xmlns="http://www.w3.org/2000/svg">
<path fill-rule="evenodd" clip-rule="evenodd" d="M19.9982 3.4014e-06C8.95546 3.4014e-06 0 8.95423 0 20.0006C0 28.837 5.73007 36.3326 13.6775 38.9773C14.6782 39.1614 15.0428 38.5438 15.0428 38.0134C15.0428 37.5383 15.0256 36.281 15.0158 34.6125C9.45272 35.8206 8.27896 31.931 8.27896 31.931C7.36917 29.6203 6.0579 29.0052 6.0579 29.0052C4.24201 27.7651 6.19541 27.7897 6.19541 27.7897C8.20284 27.9309 9.25873 29.8511 9.25873 29.8511C11.0427 32.9071 13.9403 32.0243 15.0797 31.5123C15.2614 30.2207 15.7783 29.3391 16.3492 28.8394C11.9083 28.3348 7.23903 26.6184 7.23903 18.9545C7.23903 16.7715 8.01867 14.9851 9.29803 13.5879C9.09176 13.082 8.40542 11.0476 9.49447 8.29491C9.49447 8.29491 11.1728 7.75715 14.9937 10.3453C16.5886 9.90086 18.3001 9.67985 20.0006 9.67125C21.6999 9.67985 23.4102 9.90086 25.0075 10.3453C28.8259 7.75715 30.5019 8.29491 30.5019 8.29491C31.5934 11.0476 30.907 13.082 30.702 13.5879C31.9838 14.9851 32.7573 16.7715 32.7573 18.9545C32.7573 26.638 28.0807 28.3287 23.6263 28.8235C24.3433 29.4411 24.983 30.6615 24.983 32.5265C24.983 35.2006 24.9584 37.3578 24.9584 38.0134C24.9584 38.5488 25.3194 39.1712 26.3335 38.976C34.2748 36.3252 40 28.8345 40 20.0006C40 8.95423 31.0445 3.4014e-06 19.9982 3.4014e-06" fill="#EEEEEE"/>
</svg>
