<svg width="18" height="18" viewBox="0 0 18 18" fill="none" xmlns="http://www.w3.org/2000/svg">
<path d="M9 0.000579834C4.0374 0.000579834 0 4.03782 0 9.00009C0 13.9625 4.0374 17.9997 9 17.9997C13.9626 17.9997 18 13.9625 18 9.00009C18 4.03782 13.9626 0.000579834 9 0.000579834ZM9 16.3633C4.93969 16.3633 1.63636 13.0602 1.63636 9.00014C1.63636 4.94005 4.93969 1.63694 9 1.63694C13.0603 1.63694 16.3636 4.94005 16.3636 9.00009C16.3636 13.0603 13.0603 16.3633 9 16.3633Z" fill="#EEEEEE"/>
<path d="M8.99994 7.09134C8.54809 7.09134 8.18176 7.45767 8.18176 7.90952V13.3631C8.18176 13.815 8.54809 14.1813 8.99994 14.1813C9.4518 14.1813 9.81813 13.815 9.81813 13.3631V7.90952C9.81813 7.45772 9.4518 7.09134 8.99994 7.09134Z" fill="#EEEEEE"/>
<path d="M8.99994 3.81878C8.78449 3.81878 8.57389 3.90605 8.42122 4.05823C8.26904 4.21042 8.18176 4.42151 8.18176 4.63696C8.18176 4.85242 8.26904 5.06296 8.42122 5.21569C8.5734 5.36787 8.78449 5.45514 8.99994 5.45514C9.2154 5.45514 9.42594 5.36787 9.57862 5.21569C9.7308 5.06296 9.81813 4.85242 9.81813 4.63696C9.81813 4.42151 9.7308 4.21042 9.57862 4.05823C9.42594 3.906 9.2154 3.81878 8.99994 3.81878Z" fill="#EEEEEE"/>
</svg>
