<svg width="18" height="18" viewBox="0 0 18 18" fill="none" xmlns="http://www.w3.org/2000/svg">
<g clip-path="url(#clip0_30_259)">
<path d="M17.9428 7.96339C17.9045 7.87188 17.8498 7.78863 17.78 7.71888L15.5308 5.46962C15.2375 5.17712 14.7635 5.17712 14.4703 5.46962C14.177 5.76286 14.177 6.23761 14.4703 6.53011L15.44 7.49986H11.2505C10.8357 7.49986 10.5005 7.83585 10.5005 8.24985C10.5005 8.66385 10.8357 8.99983 11.2505 8.99983H15.44L14.4702 9.96958C14.177 10.2628 14.177 10.7376 14.4702 11.0301C14.6165 11.1771 14.8085 11.2498 15.0005 11.2498C15.1925 11.2498 15.3845 11.1771 15.5308 11.0301L17.78 8.78081C17.8498 8.7118 17.9045 8.62855 17.9428 8.5363C18.0185 8.35338 18.0185 8.14638 17.9428 7.96339Z" fill="#D7263D"/>
<path d="M12.7505 10.5C12.3357 10.5 12.0005 10.836 12.0005 11.25V15H9.00049V2.99999C9.00049 2.66924 8.78298 2.37674 8.46573 2.2815L5.86096 1.50001H12.0005V5.25002C12.0005 5.66402 12.3357 6.00001 12.7505 6.00001C13.1652 6.00001 13.5005 5.66402 13.5005 5.25002V0.750023C13.5005 0.335988 13.1652 0 12.7505 0H0.750477C0.723477 0 0.699465 0.01125 0.673238 0.0142383C0.637977 0.018 0.605738 0.0239766 0.571988 0.0322383C0.493238 0.0524883 0.421977 0.08325 0.35525 0.125227C0.338762 0.135738 0.318512 0.136477 0.302762 0.148465C0.296715 0.153 0.294465 0.161262 0.288453 0.165762C0.206715 0.230238 0.138477 0.308988 0.0889766 0.40275C0.0784648 0.423 0.0762148 0.444762 0.0679883 0.46575C0.0439766 0.522738 0.01775 0.57825 0.00875 0.64125C0.00498828 0.66375 0.0117383 0.684738 0.011 0.7065C0.0102617 0.721512 0.000488281 0.735012 0.000488281 0.749988V15.75C0.000488281 16.1077 0.253227 16.4153 0.603488 16.485L8.10348 17.985C8.15224 17.9955 8.20174 18 8.25046 18C8.4222 18 8.59095 17.9408 8.72595 17.8298C8.8992 17.6873 9.00045 17.475 9.00045 17.25V16.5H12.7505C13.1652 16.5 13.5005 16.164 13.5005 15.75V11.25C13.5005 10.836 13.1652 10.5 12.7505 10.5Z" fill="#D7263D"/>
</g>
<defs>
<clipPath id="clip0_30_259">
<rect width="18" height="18" fill="white"/>
</clipPath>
</defs>
</svg>
