<svg width="18" height="18" viewBox="0 0 18 18" fill="none" xmlns="http://www.w3.org/2000/svg">
<g clip-path="url(#clip0_30_317)">
<path d="M16.8008 16.388C16.426 16.0462 15.9478 15.2167 15.365 13.9006L9.25086 0H9.0137L2.95106 13.5248C2.37606 14.8174 1.89223 15.6692 1.5007 16.0809C1.10916 16.4937 0.608558 16.746 0 16.8371V17.3003H5.63755V16.8371C4.75436 16.7706 4.20117 16.671 3.9752 16.5379C3.59094 16.3136 3.39965 15.964 3.39965 15.488C3.39965 15.1295 3.51655 14.6753 3.75035 14.1244L4.46238 12.4749H10.4501L11.3495 14.5875C11.5822 15.1356 11.7086 15.4494 11.7242 15.5249C11.7751 15.6832 11.7998 15.8376 11.7998 15.9869C11.7998 16.237 11.7086 16.4294 11.5257 16.5625C11.2578 16.746 10.7957 16.8355 10.1385 16.8355H9.80069V17.2986H18V16.8355C17.4854 16.7957 17.0849 16.6458 16.8008 16.388ZM4.90202 11.5497L7.50126 5.7125L10.0272 11.5497H4.90202Z" fill="#EEEEEE"/>
</g>
<defs>
<clipPath id="clip0_30_317">
<rect width="18" height="17.9994" fill="white"/>
</clipPath>
</defs>
</svg>
