<svg width="24" height="24" viewBox="0 0 24 24" fill="none" xmlns="http://www.w3.org/2000/svg">
<path d="M23.2694 13.8822L21.8632 13.0703C21.9011 12.7186 21.9211 12.3616 21.9211 12C21.9211 11.6385 21.9011 11.2814 21.8632 10.9297L23.2694 10.1178C23.5699 9.94437 23.7848 9.66414 23.8747 9.32883C23.9645 8.9936 23.9183 8.64341 23.7448 8.34287L21.0396 3.65717C20.8082 3.25618 20.3765 3.00718 19.913 3.00718C19.6862 3.00718 19.4622 3.06752 19.2647 3.18145L17.8545 3.99568C17.2813 3.57529 16.6617 3.21499 16.0047 2.92399V1.2994C16.0047 0.582908 15.4218 0 14.7053 0H9.29468C8.57819 0 7.99529 0.582908 7.99529 1.2994V2.92399C7.33823 3.21499 6.71858 3.57538 6.14545 3.99577L4.73525 3.18162C4.53787 3.0676 4.3137 3.00726 4.0869 3.00726C3.62344 3.00726 3.19179 3.25626 2.9603 3.65725L0.255051 8.34287C0.081519 8.64333 0.0354026 8.9936 0.125169 9.32883C0.2151 9.66414 0.429981 9.94429 0.730436 10.1178L2.13662 10.9297C2.09872 11.2814 2.07874 11.6384 2.07874 12C2.07874 12.3617 2.09872 12.7187 2.13662 13.0703L0.730436 13.8822C0.429981 14.0556 0.2151 14.3358 0.125169 14.6712C0.0354026 15.0064 0.081519 15.3567 0.255051 15.6571L2.96022 20.3428C3.1917 20.7438 3.62336 20.9928 4.08682 20.9928C4.31362 20.9928 4.53771 20.9326 4.73516 20.8185L6.14537 20.0043C6.71858 20.4247 7.33815 20.785 7.9952 21.076V22.7007C7.9952 23.0478 8.13035 23.3739 8.37589 23.6194C8.62127 23.8648 8.94762 24 9.2946 24H14.7053C15.4217 24 16.0047 23.4172 16.0047 22.7007V21.076C16.6616 20.7849 17.2813 20.4247 17.8544 20.0043L19.2647 20.8185C19.4621 20.9325 19.6862 20.9927 19.913 20.9927C20.3765 20.9927 20.8082 20.7437 21.0396 20.3427L23.7448 15.657C23.9183 15.3566 23.9645 15.0063 23.8747 14.6711C23.7848 14.3358 23.57 14.0556 23.2694 13.8822ZM12 16.5779C9.47175 16.5779 7.42216 14.5282 7.42216 12C7.42216 9.47186 9.47183 7.42219 12 7.42219C14.5282 7.42219 16.5779 9.47186 16.5779 12C16.5779 14.5282 14.5282 16.5779 12 16.5779Z" fill="#DDDDDD"/>
</svg>
