<svg width="24" height="24" viewBox="0 0 24 24" fill="none" xmlns="http://www.w3.org/2000/svg">
<path d="M23.2695 13.8822L21.8633 13.0703C21.9012 12.7186 21.9212 12.3616 21.9212 12C21.9212 11.6385 21.9012 11.2814 21.8633 10.9297L23.2695 10.1178C23.5699 9.94437 23.7849 9.66414 23.8748 9.32883C23.9645 8.9936 23.9184 8.64341 23.7449 8.34287L21.0397 3.65717C20.8082 3.25618 20.3766 3.00718 19.9131 3.00718C19.6863 3.00718 19.4622 3.06752 19.2648 3.18145L17.8546 3.99568C17.2813 3.57529 16.6618 3.21499 16.0047 2.92399V1.2994C16.0047 0.582908 15.4218 0 14.7054 0H9.29474C8.57826 0 7.99535 0.582908 7.99535 1.2994V2.92399C7.33829 3.21499 6.71864 3.57538 6.14551 3.99577L4.73531 3.18162C4.53793 3.0676 4.31376 3.00726 4.08696 3.00726C3.6235 3.00726 3.19185 3.25626 2.96036 3.65725L0.255112 8.34287C0.08158 8.64333 0.0354637 8.9936 0.12523 9.32883C0.215161 9.66414 0.430042 9.94429 0.730497 10.1178L2.13668 10.9297C2.09878 11.2814 2.07881 11.6384 2.07881 12C2.07881 12.3617 2.09878 12.7187 2.13668 13.0703L0.730497 13.8822C0.430042 14.0556 0.215161 14.3358 0.12523 14.6712C0.0354637 15.0064 0.08158 15.3567 0.255112 15.6571L2.96028 20.3428C3.19176 20.7438 3.62342 20.9928 4.08688 20.9928C4.31368 20.9928 4.53777 20.9326 4.73522 20.8185L6.14543 20.0043C6.71864 20.4247 7.33821 20.785 7.99527 21.076V22.7007C7.99527 23.0478 8.13041 23.3739 8.37595 23.6194C8.62133 23.8648 8.94768 24 9.29466 24H14.7053C15.4217 24 16.0047 23.4172 16.0047 22.7007V21.076C16.6617 20.7849 17.2813 20.4247 17.8545 20.0043L19.2648 20.8185C19.4621 20.9325 19.6863 20.9927 19.9131 20.9927C20.3766 20.9927 20.8082 20.7437 21.0397 20.3427L23.7449 15.657C23.9184 15.3566 23.9645 15.0063 23.8748 14.6711C23.7849 14.3358 23.57 14.0556 23.2695 13.8822ZM12.0001 16.5779C9.47181 16.5779 7.42222 14.5282 7.42222 12C7.42222 9.47186 9.47189 7.42219 12.0001 7.42219C14.5283 7.42219 16.5779 9.47186 16.5779 12C16.5779 14.5282 14.5283 16.5779 12.0001 16.5779Z" fill="#EEEEEE"/>
</svg>
