<svg width="24" height="24" viewBox="0 0 24 24" fill="none" xmlns="http://www.w3.org/2000/svg">
<g clip-path="url(#clip0_41_948)">
<path d="M13.9943 1.70388C14.245 1.84589 14.4 2.1118 14.4 2.39997V21.6C14.4 21.8881 14.245 22.1541 13.9942 22.2961C13.7433 22.4382 13.4356 22.4342 13.1884 22.2859L5.37842 17.6H2.4C1.07531 17.6 0 16.5264 0 15.2V8.7958C0 7.46874 1.07599 6.39684 2.4 6.39684H5.37854L13.1886 1.71386C13.4358 1.56567 13.7435 1.56185 13.9943 1.70388Z" fill="#AAAAAA"/>
<path d="M22.1656 6.63106L21.5997 6.06555L20.4688 7.19728L21.0311 7.7593L21.0346 7.76299C21.0403 7.76902 21.0514 7.78098 21.0671 7.79886C21.0983 7.83466 21.148 7.89403 21.2103 7.97693C21.3347 8.14283 21.5085 8.40197 21.6847 8.7541C22.0357 9.45571 22.4002 10.5331 22.4002 11.9938C22.4002 13.4544 22.0357 14.5319 21.6847 15.2335C21.5085 15.5856 21.3347 15.8448 21.2103 16.0106C21.148 16.0935 21.0983 16.1528 21.0671 16.1887C21.0514 16.2066 21.0403 16.2186 21.0346 16.2245L21.0312 16.2282L20.4688 16.7903L21.5997 17.922L22.1656 17.3565L21.6002 16.7906C22.1656 17.3565 22.1653 17.3568 22.1656 17.3565L22.1669 17.3554L22.1682 17.354L22.1712 17.3509L22.1792 17.3428L22.2016 17.3192C22.2194 17.3004 22.2427 17.2748 22.2707 17.2428C22.3269 17.1786 22.4023 17.088 22.4899 16.9711C22.6655 16.7372 22.8917 16.3967 23.1155 15.9494C23.5645 15.0521 24.0002 13.7311 24.0002 11.9938C24.0002 10.2565 23.5645 8.93552 23.1155 8.03818C22.8917 7.59082 22.6655 7.25035 22.4899 7.01653C22.4023 6.89955 22.3269 6.80902 22.2707 6.74486C22.2427 6.71278 22.2194 6.68726 22.2016 6.66832L22.1792 6.64478L22.1712 6.63669L22.1682 6.63357L22.1669 6.63222C22.1666 6.63194 22.1656 6.63106 21.6002 7.19691L22.1656 6.63106Z" fill="#AAAAAA"/>
</g>
<defs>
<clipPath id="clip0_41_948">
<rect width="24" height="24" fill="white"/>
</clipPath>
</defs>
</svg>
