<svg width="24" height="24" viewBox="0 0 24 24" fill="none" xmlns="http://www.w3.org/2000/svg">
<path d="M14.4 2.40001C14.4 2.11183 14.245 1.84593 13.9943 1.70391C13.7435 1.56188 13.4357 1.5657 13.1886 1.71389L5.37854 6.39688H2.4C1.07395 6.39688 0 7.46908 0 8.7957V15.2C0 16.5259 1.07318 17.6 2.4 17.6H5.37842L13.1884 22.2859C13.4356 22.4342 13.7433 22.4382 13.9942 22.2962C14.245 22.1541 14.4 21.8882 14.4 21.6V2.40001Z" fill="#AAAAAA"/>
<path d="M21.132 11.994L23.3938 14.2543L22.2627 15.3861L20.0002 13.1249L17.7376 15.3861L16.6067 14.2543L18.8685 11.994L16.6063 9.73318L17.7373 8.60144L20.0002 10.8629L22.2632 8.60144L23.3943 9.73318L21.132 11.994Z" fill="#AAAAAA"/>
</svg>
