<svg width="18" height="18" viewBox="0 0 18 18" fill="none" xmlns="http://www.w3.org/2000/svg">
<path d="M6.5 12C8.433 12 10 10.433 10 8.5C10 6.567 8.433 5 6.5 5C4.567 5 3 6.567 3 8.5C3 10.433 4.567 12 6.5 12Z" fill="#EEEEEE"/>
<path d="M6.5 12C2.91015 12 0 14.6863 0 18H13C13 14.6863 10.0899 12 6.5 12Z" fill="#EEEEEE"/>
<path d="M13.3459 0.734207C13.3459 -0.240898 14.6516 -0.248549 14.6516 0.734158C14.6516 1.71686 14.6516 3.34662 14.6516 3.34662C14.6516 3.34662 16.2805 3.3466 17.2631 3.34661C18.2456 3.34663 18.2456 4.65283 17.2631 4.65283C16.2805 4.65283 14.6516 4.65283 14.6516 4.65283C14.6516 4.65283 14.6516 5.95904 14.6516 7.26525C14.6516 8.24492 13.3459 8.24492 13.3459 7.26525C13.3459 5.95904 13.3459 4.65283 13.3459 4.65283C13.3459 4.65283 12.04 4.65284 10.7344 4.65284C9.75518 4.65283 9.75518 3.34661 10.7345 3.34662C12.0403 3.34663 13.3459 3.34664 13.3459 3.34664C13.3459 3.34664 13.3459 1.70931 13.3459 0.734207Z" fill="#EEEEEE"/>
</svg>
