<svg width="18" height="18" viewBox="0 0 18 18" fill="none" xmlns="http://www.w3.org/2000/svg">
<g clip-path="url(#clip0_30_330)">
<path d="M6.5 12C8.433 12 10 10.433 10 8.5C10 6.567 8.433 5 6.5 5C4.567 5 3 6.567 3 8.5C3 10.433 4.567 12 6.5 12Z" fill="#D7263D"/>
<path d="M6.5 12C2.91015 12 0 14.6863 0 18H13C13 14.6863 10.0899 12 6.5 12Z" fill="#D7263D"/>
<path d="M15.8467 1.22821C16.5362 0.538702 17.4649 1.45658 16.7701 2.15146C16.0752 2.84634 14.9228 3.99875 14.9228 3.99875C14.9228 3.99875 16.0746 5.15051 16.7693 5.84531C17.4641 6.54012 16.5405 7.46374 15.8457 6.76895C15.1509 6.07416 13.9991 4.92238 13.9991 4.92238C13.9991 4.92238 13.0755 5.846 12.1519 6.76964C11.4592 7.46237 10.5359 6.53909 11.2286 5.84635C12.1522 4.9227 13.0759 3.99909 13.0759 3.99909C13.0759 3.99909 12.1524 3.0757 11.2292 2.15248C10.5368 1.46008 11.4605 0.536436 12.153 1.22895C13.0763 2.15229 13.9995 3.07547 13.9995 3.07547C13.9995 3.07547 15.1572 1.91771 15.8467 1.22821Z" fill="#D7263D"/>
</g>
<defs>
<clipPath id="clip0_30_330">
<rect width="18" height="18" fill="white"/>
</clipPath>
</defs>
</svg>
